# xmcd CD database file
#
# Track frame offsets:
#	150
#	28127
#	61595
#	90570
#	130976
#	170781
#	202869
#
# Disc length: 2936 seconds
#
# Revision: 0
# Processed by: cddbd v1.5.2PL0 Copyright (c) Steve Scherf et al.
# Submitted via: CDex 1.51
#
DISCID=570b7607
DTITLE=Hideaki Yoshioka - Moment to Moment
DYEAR=2000
DGENRE=Jazz
TTITLE0=01 Wired
TTITLE1=02 Don't Take Your Love From Me
TTITLE2=03 Blowin' The Blues Away
TTITLE3=04 Some One To Light Up My Life
TTITLE4=05 Harlem Blues
TTITLE5=06 Moment To Moment
TTITLE6=07 Hudson
EXTD=YEAR: 2000
EXTT0=
EXTT1=
EXTT2=
EXTT3=
EXTT4=
EXTT5=
EXTT6=
PLAYORDER=
